<svg width="63" height="63" viewBox="0 0 63 63" fill="none" xmlns="http://www.w3.org/2000/svg">
<path d="M31.4998 3.77979C16.2054 3.77979 3.77979 16.2054 3.77979 31.4998C3.77979 45.3839 14.0205 56.8741 27.358 58.8777L28.8051 59.0967V37.2535H22.2565V32.8188H28.8051V26.9298C28.8051 23.3034 29.6753 20.9151 31.1159 19.4166C32.5565 17.9181 34.6851 17.1624 37.6472 17.1624C40.0158 17.1624 40.9372 17.3059 41.8136 17.4134V21.0433H38.73C36.9804 21.0433 35.545 22.0194 34.7999 23.3196C34.0549 24.6198 33.8229 26.1723 33.8229 27.7542V32.8164H41.538L40.8514 37.251H33.8229V59.1312L35.2527 58.9368C48.7799 57.1022 59.2198 45.5196 59.2198 31.4998C59.2198 16.2054 46.7942 3.77979 31.4998 3.77979ZM31.4998 6.29979C45.4323 6.29979 56.6998 17.5673 56.6998 31.4998C56.6998 43.7593 47.9249 53.8419 36.3429 56.1116V39.771H43.0121L44.4763 30.2964H36.3429V27.7542C36.3429 26.447 36.5821 25.2758 36.9852 24.5722C37.3883 23.8687 37.7769 23.5633 38.73 23.5633H44.3336V15.1321L43.2409 14.9844C42.4852 14.8822 40.7598 14.6424 37.6472 14.6424C34.2413 14.6424 31.3178 15.5702 29.2997 17.6693C27.2816 19.7685 26.2851 22.8941 26.2851 26.9298V30.2988H19.7365V39.7735H26.2851V56.0329C14.8892 53.6189 6.29979 43.6266 6.29979 31.4998C6.29979 17.5673 17.5673 6.29979 31.4998 6.29979Z" fill="white"/>
</svg>
