<svg width="63" height="63" viewBox="0 0 63 63" fill="none" xmlns="http://www.w3.org/2000/svg">
<path d="M11.34 5.04004C7.87565 5.04004 5.04004 7.87565 5.04004 11.34V51.66C5.04004 55.1244 7.87565 57.96 11.34 57.96H51.66C55.1244 57.96 57.96 55.1244 57.96 51.66V11.34C57.96 7.87565 55.1244 5.04004 51.66 5.04004H11.34ZM11.34 7.56004H51.66C53.7623 7.56004 55.44 9.23775 55.44 11.34V51.66C55.44 53.7623 53.7623 55.44 51.66 55.44H11.34C9.23775 55.44 7.56004 53.7623 7.56004 51.66V11.34C7.56004 9.23775 9.23775 7.56004 11.34 7.56004ZM17.64 13.8748C16.2601 13.8748 15.0183 14.2873 14.0988 15.061C13.1792 15.8347 12.6148 16.9905 12.6148 18.2282C12.6148 20.5808 14.6555 22.4149 17.2512 22.5964L17.2561 22.5988C17.3798 22.641 17.5094 22.6634 17.64 22.6653C20.504 22.6653 22.6653 20.6591 22.6653 18.2282C22.665 18.206 22.6642 18.1839 22.6628 18.1618C22.5346 15.7675 20.4 13.8748 17.64 13.8748ZM17.64 16.3653C19.3942 16.3653 20.0869 17.1487 20.1625 18.2602C20.1472 19.3391 19.4798 20.1748 17.64 20.1748C15.8944 20.1748 15.1053 19.2808 15.1053 18.2282C15.1053 17.7019 15.2973 17.3053 15.7008 16.9657C16.1043 16.6262 16.752 16.3653 17.64 16.3653ZM13.86 23.94C13.5259 23.9401 13.2054 24.0728 12.9691 24.3091C12.7328 24.5454 12.6001 24.8659 12.6 25.2V49.14C12.6001 49.4742 12.7328 49.7947 12.9691 50.031C13.2054 50.2672 13.5259 50.4 13.86 50.4H21.42C21.7542 50.4 22.0747 50.2672 22.311 50.031C22.5472 49.7947 22.68 49.4742 22.68 49.14V41.7498V25.2C22.68 24.8659 22.5472 24.5454 22.311 24.3091C22.0747 24.0728 21.7542 23.9401 21.42 23.94H13.86ZM25.2 23.94C24.8659 23.9401 24.5454 24.0728 24.3091 24.3091C24.0728 24.5454 23.9401 24.8659 23.94 25.2V49.14C23.9401 49.4742 24.0728 49.7947 24.3091 50.031C24.5454 50.2672 24.8659 50.4 25.2 50.4H32.76C33.0942 50.4 33.4147 50.2672 33.651 50.031C33.8872 49.7947 34.02 49.4742 34.02 49.14V36.54C34.02 35.4947 34.3053 34.4548 34.8075 33.7739C35.3098 33.0931 35.9434 32.6845 37.1479 32.7059C38.3899 32.7273 39.0474 33.1527 39.5448 33.8207C40.0422 34.4887 40.32 35.49 40.32 36.54V49.14C40.3201 49.4742 40.4528 49.7947 40.6891 50.031C40.9254 50.2672 41.2459 50.4 41.58 50.4H49.14C49.4742 50.4 49.7947 50.2672 50.031 50.031C50.2672 49.7947 50.4 49.4742 50.4 49.14V35.6098C50.4 31.8783 49.2948 28.9225 47.4002 26.9227C45.5056 24.9229 42.8705 23.94 40.0838 23.94C37.4352 23.94 35.4197 24.8282 34.02 25.7341V25.2C34.02 24.8659 33.8872 24.5454 33.651 24.3091C33.4147 24.0728 33.0942 23.9401 32.76 23.94H25.2ZM15.12 26.46H20.16V41.7498V47.88H15.12V26.46ZM26.46 26.46H31.5V28.4263C31.5001 28.6905 31.5832 28.948 31.7376 29.1624C31.8921 29.3768 32.1099 29.5372 32.3605 29.621C32.6111 29.7048 32.8816 29.7077 33.134 29.6294C33.3863 29.551 33.6076 29.3953 33.7666 29.1843C33.7666 29.1843 35.7452 26.46 40.0838 26.46C42.293 26.46 44.1874 27.1941 45.5717 28.6552C46.9559 30.1163 47.88 32.3672 47.88 35.6098V47.88H42.84V36.54C42.84 35.07 42.4878 33.5502 41.5677 32.3146C40.6476 31.079 39.1002 30.2187 37.1922 30.1859C35.2744 30.1518 33.7019 31.03 32.7797 32.2802C31.8575 33.5303 31.5 35.0654 31.5 36.54V47.88H26.46V26.46Z" fill="white"/>
</svg>
